# xmcd
#
# Track frame offsets:
#	150
#	18235
#	36217
#	51885
#	67377
#	85057
#	97367
#	114290
#	130542
#	143995
#	155512
#
# Disc length: 2263 seconds
#
# Revision: 0
# Processed by: cddbd v1.5.1PL0 Copyright (c) Steve Scherf et al.
# Submitted via: dBpowerAMP V4.0
#
DISCID=9608d50b
DTITLE=лПщККОУ - сЕ ЖИКъЕР ДЕМ ПИСТЕЩЫ
DYEAR=1900
DGENRE=
TTITLE0=выяисале ема деикимо
TTITLE1=то йаимоуяио воккуцоумт
TTITLE2=цяалла ха стеикы сто хео
TTITLE3=памта пеяипкамылемос
TTITLE4=йаты ап'то сбусто жамаяи
TTITLE5=сам пехамы сто йаяаби
TTITLE6=мувтысе выяис жеццаяи
TTITLE7=амоине амоине
TTITLE8=се жикиес дем пистеуы
TTITLE9=дыдейа г ыяа ха'яхы ма се бяы
TTITLE10=фоуса ломавос выяис ацапг
EXTD=
EXTT0=
EXTT1=
EXTT2=
EXTT3=
EXTT4=
EXTT5=
EXTT6=
EXTT7=
EXTT8=
EXTT9=
EXTT10=
PLAYORDER=
